<?xml version="1.0" encoding="utf-8"?>
<!-- Generator: Adobe Illustrator 25.1.0, SVG Export Plug-In . SVG Version: 6.00 Build 0)  -->
<svg version="1.1" id="Layer_1" xmlns="http://www.w3.org/2000/svg" xmlns:xlink="http://www.w3.org/1999/xlink" x="0px" y="0px"
	 viewBox="0 0 100 100" style="enable-background:new 0 0 100 100;" xml:space="preserve">
<style type="text/css">
	.st0{fill:#F0EBDF;}
</style>
<g>
	<circle class="st0" cx="10" cy="10" r="3.5"/>
</g>
<g>
	<circle class="st0" cx="30" cy="10" r="3.5"/>
</g>
<g>
	<circle class="st0" cx="10" cy="30" r="3.5"/>
</g>
<g>
	<circle class="st0" cx="30" cy="30" r="3.5"/>
</g>
<g>
	<circle class="st0" cx="10" cy="50" r="3.5"/>
</g>
<g>
	<circle class="st0" cx="30" cy="50" r="3.5"/>
</g>
<g>
	<circle class="st0" cx="10" cy="70" r="3.5"/>
</g>
<g>
	<circle class="st0" cx="30" cy="70" r="3.5"/>
</g>
<g>
	<circle class="st0" cx="50" cy="10" r="3.5"/>
</g>
<g>
	<circle class="st0" cx="70" cy="10" r="3.5"/>
</g>
<g>
	<circle class="st0" cx="50" cy="30" r="3.5"/>
</g>
<g>
	<circle class="st0" cx="70" cy="30" r="3.5"/>
</g>
<g>
	<circle class="st0" cx="50" cy="50" r="3.5"/>
</g>
<g>
	<circle class="st0" cx="70" cy="50" r="3.5"/>
</g>
<g>
	<circle class="st0" cx="50" cy="70" r="3.5"/>
</g>
<g>
	<circle class="st0" cx="70" cy="70" r="3.5"/>
</g>
<g>
	<circle class="st0" cx="90" cy="10" r="3.5"/>
</g>
<g>
	<circle class="st0" cx="90" cy="30" r="3.5"/>
</g>
<g>
	<circle class="st0" cx="90" cy="50" r="3.5"/>
</g>
<g>
	<circle class="st0" cx="90" cy="70" r="3.5"/>
</g>
<g>
	<circle class="st0" cx="10" cy="90" r="3.5"/>
</g>
<g>
	<circle class="st0" cx="30" cy="90" r="3.5"/>
</g>
<g>
	<circle class="st0" cx="50" cy="90" r="3.5"/>
</g>
<g>
	<circle class="st0" cx="70" cy="90" r="3.5"/>
</g>
<g>
	<circle class="st0" cx="90" cy="90" r="3.5"/>
</g>
</svg>
