<?xml version="1.0" encoding="utf-8"?>
<!-- Generator: Adobe Illustrator 25.1.0, SVG Export Plug-In . SVG Version: 6.00 Build 0)  -->
<svg version="1.1" id="Layer_1" xmlns="http://www.w3.org/2000/svg" xmlns:xlink="http://www.w3.org/1999/xlink" x="0px" y="0px"
	 viewBox="0 0 1013 1013" style="enable-background:new 0 0 1013 1013;" xml:space="preserve">
<style type="text/css">
	.st0{fill:none;stroke:#FFFFFF;stroke-width:5;stroke-miterlimit:10;}
	.st1{opacity:0.52;}
	.st2{fill:none;stroke:#FFFFFF;stroke-width:12.4;stroke-miterlimit:10;}
</style>
<g>
	<g>
		
			<rect x="32.5" y="32.5" transform="matrix(-1.836970e-16 1 -1 -1.836970e-16 155.8569 1.421085e-14)" class="st0" width="90.9" height="90.9"/>
		
			<rect x="175.4" y="32.5" transform="matrix(-1.836970e-16 1 -1 -1.836970e-16 298.7141 -142.8572)" class="st0" width="90.9" height="90.9"/>
		
			<rect x="318.2" y="32.5" transform="matrix(-1.836970e-16 1 -1 -1.836970e-16 441.5713 -285.7144)" class="st0" width="90.9" height="90.9"/>
		
			<rect x="461.1" y="32.5" transform="matrix(-1.836970e-16 1 -1 -1.836970e-16 584.4285 -428.5715)" class="st0" width="90.9" height="90.9"/>
		
			<rect x="603.9" y="32.5" transform="matrix(-1.836970e-16 1 -1 -1.836970e-16 727.2854 -571.4285)" class="st0" width="90.9" height="90.9"/>
		
			<rect x="746.8" y="32.5" transform="matrix(-1.836970e-16 1 -1 -1.836970e-16 870.1423 -714.2854)" class="st0" width="90.9" height="90.9"/>
		
			<rect x="889.6" y="32.5" transform="matrix(-1.836970e-16 1 -1 -1.836970e-16 1012.9998 -857.1428)" class="st0" width="90.9" height="90.9"/>
		
			<rect x="32.5" y="175.4" transform="matrix(-1.836970e-16 1 -1 -1.836970e-16 298.7144 142.8569)" class="st0" width="90.9" height="90.9"/>
		
			<rect x="175.4" y="175.4" transform="matrix(-1.836970e-16 1 -1 -1.836970e-16 441.5715 -2.441406e-04)" class="st0" width="90.9" height="90.9"/>
		
			<rect x="318.2" y="175.4" transform="matrix(-1.836970e-16 1 -1 -1.836970e-16 584.4285 -142.8572)" class="st0" width="90.9" height="90.9"/>
		
			<rect x="461.1" y="175.4" transform="matrix(-1.836970e-16 1 -1 -1.836970e-16 727.2856 -285.7144)" class="st0" width="90.9" height="90.9"/>
		
			<rect x="603.9" y="175.4" transform="matrix(-1.836970e-16 1 -1 -1.836970e-16 870.1431 -428.5718)" class="st0" width="90.9" height="90.9"/>
		
			<rect x="746.8" y="175.4" transform="matrix(-1.836970e-16 1 -1 -1.836970e-16 1013 -571.4287)" class="st0" width="90.9" height="90.9"/>
		
			<rect x="889.6" y="175.4" transform="matrix(-1.836970e-16 1 -1 -1.836970e-16 1155.8569 -714.2856)" class="st0" width="90.9" height="90.9"/>
		
			<rect x="32.5" y="318.2" transform="matrix(-1.836970e-16 1 -1 -1.836970e-16 441.5713 285.7144)" class="st0" width="90.9" height="90.9"/>
		
			<rect x="175.4" y="318.2" transform="matrix(-1.836970e-16 1 -1 -1.836970e-16 584.4285 142.8572)" class="st0" width="90.9" height="90.9"/>
		
			<rect x="318.2" y="318.2" transform="matrix(-1.836970e-16 1 -1 -1.836970e-16 727.2856 5.684342e-14)" class="st0" width="90.9" height="90.9"/>
		
			<rect x="461.1" y="318.2" transform="matrix(-1.836970e-16 1 -1 -1.836970e-16 870.1428 -142.8572)" class="st0" width="90.9" height="90.9"/>
		
			<rect x="603.9" y="318.2" transform="matrix(-1.836970e-16 1 -1 -1.836970e-16 1012.9998 -285.7141)" class="st0" width="90.9" height="90.9"/>
		
			<rect x="746.8" y="318.2" transform="matrix(-1.836970e-16 1 -1 -1.836970e-16 1155.8567 -428.571)" class="st0" width="90.9" height="90.9"/>
		
			<rect x="889.6" y="318.2" transform="matrix(-1.836970e-16 1 -1 -1.836970e-16 1298.7141 -571.4285)" class="st0" width="90.9" height="90.9"/>
		
			<rect x="32.5" y="461.1" transform="matrix(-1.836970e-16 1 -1 -1.836970e-16 584.4287 428.5713)" class="st0" width="90.9" height="90.9"/>
		
			<rect x="175.4" y="461.1" transform="matrix(-1.836970e-16 1 -1 -1.836970e-16 727.2859 285.7141)" class="st0" width="90.9" height="90.9"/>
		
			<rect x="318.2" y="461.1" transform="matrix(-1.836970e-16 1 -1 -1.836970e-16 870.1428 142.8572)" class="st0" width="90.9" height="90.9"/>
		
			<rect x="461.1" y="461.1" transform="matrix(-1.836970e-16 1 -1 -1.836970e-16 1013 1.136868e-13)" class="st0" width="90.9" height="90.9"/>
		
			<rect x="603.9" y="461.1" transform="matrix(-1.836970e-16 1 -1 -1.836970e-16 1155.8574 -142.8574)" class="st0" width="90.9" height="90.9"/>
		
			<rect x="746.8" y="461.1" transform="matrix(-1.836970e-16 1 -1 -1.836970e-16 1298.7144 -285.7144)" class="st0" width="90.9" height="90.9"/>
		
			<rect x="889.6" y="461.1" transform="matrix(-1.836970e-16 1 -1 -1.836970e-16 1441.5713 -428.5713)" class="st0" width="90.9" height="90.9"/>
		
			<rect x="32.5" y="603.9" transform="matrix(-1.836970e-16 1 -1 -1.836970e-16 727.2859 571.429)" class="st0" width="90.9" height="90.9"/>
		
			<rect x="175.4" y="603.9" transform="matrix(-1.836970e-16 1 -1 -1.836970e-16 870.1428 428.572)" class="st0" width="90.9" height="90.9"/>
		
			<rect x="318.2" y="603.9" transform="matrix(-1.836970e-16 1 -1 -1.836970e-16 1013 285.7148)" class="st0" width="90.9" height="90.9"/>
		
			<rect x="461.1" y="603.9" transform="matrix(-1.836970e-16 1 -1 -1.836970e-16 1155.8574 142.8574)" class="st0" width="90.9" height="90.9"/>
		
			<rect x="603.9" y="603.9" transform="matrix(-1.836970e-16 1 -1 -1.836970e-16 1298.7144 4.882812e-04)" class="st0" width="90.9" height="90.9"/>
		
			<rect x="746.8" y="603.9" transform="matrix(-1.836970e-16 1 -1 -1.836970e-16 1441.5713 -142.8564)" class="st0" width="90.9" height="90.9"/>
		
			<rect x="889.6" y="603.9" transform="matrix(-1.836970e-16 1 -1 -1.836970e-16 1584.4287 -285.7139)" class="st0" width="90.9" height="90.9"/>
		
			<rect x="32.5" y="746.8" transform="matrix(-1.836970e-16 1 -1 -1.836970e-16 870.1428 714.2859)" class="st0" width="90.9" height="90.9"/>
		
			<rect x="175.4" y="746.8" transform="matrix(-1.836970e-16 1 -1 -1.836970e-16 1013 571.4287)" class="st0" width="90.9" height="90.9"/>
		
			<rect x="318.2" y="746.8" transform="matrix(-1.836970e-16 1 -1 -1.836970e-16 1155.8572 428.5715)" class="st0" width="90.9" height="90.9"/>
		
			<rect x="461.1" y="746.8" transform="matrix(-1.836970e-16 1 -1 -1.836970e-16 1298.7144 285.7144)" class="st0" width="90.9" height="90.9"/>
		
			<rect x="603.9" y="746.8" transform="matrix(-1.836970e-16 1 -1 -1.836970e-16 1441.5713 142.8574)" class="st0" width="90.9" height="90.9"/>
		
			<rect x="746.8" y="746.8" transform="matrix(-1.836970e-16 1 -1 -1.836970e-16 1584.4282 4.882812e-04)" class="st0" width="90.9" height="90.9"/>
		
			<rect x="889.6" y="746.8" transform="matrix(-1.836970e-16 1 -1 -1.836970e-16 1727.2856 -142.8569)" class="st0" width="90.9" height="90.9"/>
		
			<rect x="32.5" y="889.6" transform="matrix(-1.836970e-16 1 -1 -1.836970e-16 1012.9998 857.1428)" class="st0" width="90.9" height="90.9"/>
		
			<rect x="175.4" y="889.6" transform="matrix(-1.836970e-16 1 -1 -1.836970e-16 1155.8569 714.2856)" class="st0" width="90.9" height="90.9"/>
		
			<rect x="318.2" y="889.6" transform="matrix(-1.836970e-16 1 -1 -1.836970e-16 1298.7141 571.4285)" class="st0" width="90.9" height="90.9"/>
		
			<rect x="461.1" y="889.6" transform="matrix(-1.836970e-16 1 -1 -1.836970e-16 1441.5713 428.5713)" class="st0" width="90.9" height="90.9"/>
		
			<rect x="603.9" y="889.6" transform="matrix(-1.836970e-16 1 -1 -1.836970e-16 1584.4282 285.7144)" class="st0" width="90.9" height="90.9"/>
		
			<rect x="746.8" y="889.6" transform="matrix(-1.836970e-16 1 -1 -1.836970e-16 1727.2852 142.8574)" class="st0" width="90.9" height="90.9"/>
		
			<rect x="889.6" y="889.6" transform="matrix(-1.836970e-16 1 -1 -1.836970e-16 1870.1426 2.273737e-13)" class="st0" width="90.9" height="90.9"/>
	</g>
</g>
<g class="st1">
	<g>
		
			<rect x="32.5" y="32.5" transform="matrix(-1.836970e-16 1 -1 -1.836970e-16 155.8569 9.237056e-13)" class="st2" width="90.9" height="90.9"/>
		
			<rect x="175.4" y="32.5" transform="matrix(-1.836970e-16 1 -1 -1.836970e-16 298.7141 -142.8572)" class="st2" width="90.9" height="90.9"/>
		
			<rect x="318.2" y="32.5" transform="matrix(-1.836970e-16 1 -1 -1.836970e-16 441.5713 -285.7144)" class="st2" width="90.9" height="90.9"/>
		
			<rect x="461.1" y="32.5" transform="matrix(-1.836970e-16 1 -1 -1.836970e-16 584.4285 -428.5715)" class="st2" width="90.9" height="90.9"/>
		
			<rect x="603.9" y="32.5" transform="matrix(-1.836970e-16 1 -1 -1.836970e-16 727.2854 -571.4285)" class="st2" width="90.9" height="90.9"/>
		
			<rect x="746.8" y="32.5" transform="matrix(-1.836970e-16 1 -1 -1.836970e-16 870.1423 -714.2854)" class="st2" width="90.9" height="90.9"/>
		
			<rect x="889.6" y="32.5" transform="matrix(-1.836970e-16 1 -1 -1.836970e-16 1012.9998 -857.1428)" class="st2" width="90.9" height="90.9"/>
		
			<rect x="32.5" y="175.4" transform="matrix(-1.836970e-16 1 -1 -1.836970e-16 298.7144 142.8569)" class="st2" width="90.9" height="90.9"/>
		
			<rect x="175.4" y="175.4" transform="matrix(-1.836970e-16 1 -1 -1.836970e-16 441.5715 -2.441406e-04)" class="st2" width="90.9" height="90.9"/>
		
			<rect x="318.2" y="175.4" transform="matrix(-1.836970e-16 1 -1 -1.836970e-16 584.4285 -142.8572)" class="st2" width="90.9" height="90.9"/>
		
			<rect x="461.1" y="175.4" transform="matrix(-1.836970e-16 1 -1 -1.836970e-16 727.2856 -285.7144)" class="st2" width="90.9" height="90.9"/>
		
			<rect x="603.9" y="175.4" transform="matrix(-1.836970e-16 1 -1 -1.836970e-16 870.1431 -428.5718)" class="st2" width="90.9" height="90.9"/>
		
			<rect x="746.8" y="175.4" transform="matrix(-1.836970e-16 1 -1 -1.836970e-16 1013 -571.4287)" class="st2" width="90.9" height="90.9"/>
		
			<rect x="889.6" y="175.4" transform="matrix(-1.836970e-16 1 -1 -1.836970e-16 1155.8569 -714.2856)" class="st2" width="90.9" height="90.9"/>
		
			<rect x="32.5" y="318.2" transform="matrix(-1.836970e-16 1 -1 -1.836970e-16 441.5713 285.7144)" class="st2" width="90.9" height="90.9"/>
		
			<rect x="175.4" y="318.2" transform="matrix(-1.836970e-16 1 -1 -1.836970e-16 584.4285 142.8572)" class="st2" width="90.9" height="90.9"/>
		
			<rect x="318.2" y="318.2" transform="matrix(-1.836970e-16 1 -1 -1.836970e-16 727.2856 9.663381e-13)" class="st2" width="90.9" height="90.9"/>
		
			<rect x="461.1" y="318.2" transform="matrix(-1.836970e-16 1 -1 -1.836970e-16 870.1428 -142.8572)" class="st2" width="90.9" height="90.9"/>
		
			<rect x="603.9" y="318.2" transform="matrix(-1.836970e-16 1 -1 -1.836970e-16 1012.9998 -285.7141)" class="st2" width="90.9" height="90.9"/>
		
			<rect x="746.8" y="318.2" transform="matrix(-1.836970e-16 1 -1 -1.836970e-16 1155.8567 -428.571)" class="st2" width="90.9" height="90.9"/>
		
			<rect x="889.6" y="318.2" transform="matrix(-1.836970e-16 1 -1 -1.836970e-16 1298.7141 -571.4285)" class="st2" width="90.9" height="90.9"/>
		
			<rect x="32.5" y="461.1" transform="matrix(-1.836970e-16 1 -1 -1.836970e-16 584.4287 428.5713)" class="st2" width="90.9" height="90.9"/>
		
			<rect x="175.4" y="461.1" transform="matrix(-1.836970e-16 1 -1 -1.836970e-16 727.2859 285.7141)" class="st2" width="90.9" height="90.9"/>
		
			<rect x="318.2" y="461.1" transform="matrix(-1.836970e-16 1 -1 -1.836970e-16 870.1428 142.8572)" class="st2" width="90.9" height="90.9"/>
		
			<rect x="461.1" y="461.1" transform="matrix(-1.836970e-16 1 -1 -1.836970e-16 1013 5.684342e-13)" class="st2" width="90.9" height="90.9"/>
		
			<rect x="603.9" y="461.1" transform="matrix(-1.836970e-16 1 -1 -1.836970e-16 1155.8574 -142.8574)" class="st2" width="90.9" height="90.9"/>
		
			<rect x="746.8" y="461.1" transform="matrix(-1.836970e-16 1 -1 -1.836970e-16 1298.7144 -285.7144)" class="st2" width="90.9" height="90.9"/>
		
			<rect x="889.6" y="461.1" transform="matrix(-1.836970e-16 1 -1 -1.836970e-16 1441.5713 -428.5713)" class="st2" width="90.9" height="90.9"/>
		
			<rect x="32.5" y="603.9" transform="matrix(-1.836970e-16 1 -1 -1.836970e-16 727.2859 571.429)" class="st2" width="90.9" height="90.9"/>
		
			<rect x="175.4" y="603.9" transform="matrix(-1.836970e-16 1 -1 -1.836970e-16 870.1428 428.572)" class="st2" width="90.9" height="90.9"/>
		
			<rect x="318.2" y="603.9" transform="matrix(-1.836970e-16 1 -1 -1.836970e-16 1013 285.7148)" class="st2" width="90.9" height="90.9"/>
		
			<rect x="461.1" y="603.9" transform="matrix(-1.836970e-16 1 -1 -1.836970e-16 1155.8574 142.8574)" class="st2" width="90.9" height="90.9"/>
		
			<rect x="603.9" y="603.9" transform="matrix(-1.836970e-16 1 -1 -1.836970e-16 1298.7144 4.882812e-04)" class="st2" width="90.9" height="90.9"/>
		
			<rect x="746.8" y="603.9" transform="matrix(-1.836970e-16 1 -1 -1.836970e-16 1441.5713 -142.8564)" class="st2" width="90.9" height="90.9"/>
		
			<rect x="889.6" y="603.9" transform="matrix(-1.836970e-16 1 -1 -1.836970e-16 1584.4287 -285.7139)" class="st2" width="90.9" height="90.9"/>
		
			<rect x="32.5" y="746.8" transform="matrix(-1.836970e-16 1 -1 -1.836970e-16 870.1428 714.2859)" class="st2" width="90.9" height="90.9"/>
		
			<rect x="175.4" y="746.8" transform="matrix(-1.836970e-16 1 -1 -1.836970e-16 1013 571.4287)" class="st2" width="90.9" height="90.9"/>
		
			<rect x="318.2" y="746.8" transform="matrix(-1.836970e-16 1 -1 -1.836970e-16 1155.8572 428.5715)" class="st2" width="90.9" height="90.9"/>
		
			<rect x="461.1" y="746.8" transform="matrix(-1.836970e-16 1 -1 -1.836970e-16 1298.7144 285.7144)" class="st2" width="90.9" height="90.9"/>
		
			<rect x="603.9" y="746.8" transform="matrix(-1.836970e-16 1 -1 -1.836970e-16 1441.5713 142.8574)" class="st2" width="90.9" height="90.9"/>
		
			<rect x="746.8" y="746.8" transform="matrix(-1.836970e-16 1 -1 -1.836970e-16 1584.4282 4.882812e-04)" class="st2" width="90.9" height="90.9"/>
		
			<rect x="889.6" y="746.8" transform="matrix(-1.836970e-16 1 -1 -1.836970e-16 1727.2856 -142.8569)" class="st2" width="90.9" height="90.9"/>
		
			<rect x="32.5" y="889.6" transform="matrix(-1.836970e-16 1 -1 -1.836970e-16 1012.9998 857.1428)" class="st2" width="90.9" height="90.9"/>
		
			<rect x="175.4" y="889.6" transform="matrix(-1.836970e-16 1 -1 -1.836970e-16 1155.8569 714.2856)" class="st2" width="90.9" height="90.9"/>
		
			<rect x="318.2" y="889.6" transform="matrix(-1.836970e-16 1 -1 -1.836970e-16 1298.7141 571.4285)" class="st2" width="90.9" height="90.9"/>
		
			<rect x="461.1" y="889.6" transform="matrix(-1.836970e-16 1 -1 -1.836970e-16 1441.5713 428.5713)" class="st2" width="90.9" height="90.9"/>
		
			<rect x="603.9" y="889.6" transform="matrix(-1.836970e-16 1 -1 -1.836970e-16 1584.4282 285.7144)" class="st2" width="90.9" height="90.9"/>
		
			<rect x="746.8" y="889.6" transform="matrix(-1.836970e-16 1 -1 -1.836970e-16 1727.2852 142.8574)" class="st2" width="90.9" height="90.9"/>
		
			<rect x="889.6" y="889.6" transform="matrix(-1.836970e-16 1 -1 -1.836970e-16 1870.1426 2.273737e-13)" class="st2" width="90.9" height="90.9"/>
	</g>
</g>
</svg>
