<?xml version="1.0" encoding="utf-8"?>
<!-- Generator: Adobe Illustrator 25.3.0, SVG Export Plug-In . SVG Version: 6.00 Build 0)  -->
<svg version="1.1" id="Layer_1" xmlns="http://www.w3.org/2000/svg" xmlns:xlink="http://www.w3.org/1999/xlink" x="0px" y="0px"
	 viewBox="0 0 95 95" style="enable-background:new 0 0 95 95;" xml:space="preserve">
<style type="text/css">
	.st0{fill:#FFFFFF;}
	.st1{fill:none;stroke:#60605E;stroke-width:3;stroke-linecap:round;stroke-linejoin:round;stroke-miterlimit:10;}
	.st2{fill:#60605E;}
	.st3{fill:none;stroke:#7D7D7A;stroke-width:5.57;}
	.st4{fill:none;stroke:#60605E;stroke-width:5.57;}
	.st5{fill:none;stroke:#7D7D7A;stroke-width:4;stroke-linecap:round;stroke-linejoin:round;stroke-miterlimit:10;}
	.st6{fill:none;stroke:#7D7D7A;stroke-width:4;stroke-miterlimit:10;}
	.st7{fill:none;stroke:#7D7D7A;stroke-width:2.354;}
	.st8{fill:#7D7D7A;}
	.st9{fill:none;stroke:#7D7D7A;stroke-width:2.513;}
	.st10{fill:none;stroke:#FFFFFF;stroke-width:4;}
	.st11{fill:none;stroke:#7D7D7A;stroke-width:3.138;}
	.st12{fill:none;stroke:#FFFFFF;stroke-width:4;stroke-linecap:round;stroke-linejoin:round;stroke-miterlimit:10;}
</style>
<g>
	<polyline class="st12" points="20.51,27.36 86.5,27.36 75.92,64.12 23.15,64.12 19.2,11.81 8.5,11.81 	"/>
	<path class="st12" d="M33.66,78.01c0,2.86-2.32,5.18-5.18,5.18c-2.86,0-5.18-2.32-5.18-5.18c0-2.86,2.32-5.18,5.18-5.18
		C31.34,72.83,33.66,75.15,33.66,78.01z"/>
	<path class="st12" d="M74.63,78.01c0,2.86-2.32,5.18-5.18,5.18c-2.86,0-5.18-2.32-5.18-5.18c0-2.86,2.32-5.18,5.18-5.18
		C72.31,72.83,74.63,75.15,74.63,78.01z"/>
</g>
</svg>
