<?xml version="1.0" encoding="utf-8"?>
<!-- Generator: Adobe Illustrator 25.1.0, SVG Export Plug-In . SVG Version: 6.00 Build 0)  -->
<svg version="1.1" id="Layer_1" xmlns="http://www.w3.org/2000/svg" xmlns:xlink="http://www.w3.org/1999/xlink" x="0px" y="0px"
	 viewBox="0 0 98 103" style="enable-background:new 0 0 98 103;" xml:space="preserve">
<style type="text/css">
	.st0{fill:none;stroke:#7D7D7A;stroke-width:4;stroke-linecap:round;stroke-linejoin:round;stroke-miterlimit:10;}
</style>
<g>
	<path class="st0" d="M41.9,20.4l40.8,40.8 M40.4,94.6L8.5,62.7l37.9-37.9l31.9,31.9L40.4,94.6z"/>
	<path class="st0" d="M57.5,52c0,3.1-2.5,5.7-5.7,5.7s-5.7-2.5-5.7-5.7c0-3.1,2.5-5.7,5.7-5.7S57.5,48.8,57.5,52z"/>
	<line class="st0" x1="51.8" y1="46" x2="51.8" y2="8.4"/>
	<path class="st0" d="M77.4,76.7l5.4-8.3l5.5,8.3c0.6,0.9,1,1.9,1.1,3c0,0.5,0,1.1-0.1,1.6c-0.4,2.7-2.5,4.9-5.1,5.5
		c-4.3,0.9-8-2.4-8-6.6c0,0,0,0,0,0C76.3,79,76.8,77.7,77.4,76.7z"/>
</g>
</svg>
