<?xml version="1.0" encoding="utf-8"?>
<!-- Generator: Adobe Illustrator 25.3.0, SVG Export Plug-In . SVG Version: 6.00 Build 0)  -->
<svg version="1.1" id="Layer_1" xmlns="http://www.w3.org/2000/svg" xmlns:xlink="http://www.w3.org/1999/xlink" x="0px" y="0px"
	 viewBox="0 0 98 103" style="enable-background:new 0 0 98 103;" xml:space="preserve">
<style type="text/css">
	.st0{fill:#FFFFFF;}
	.st1{fill:none;stroke:#60605E;stroke-width:3;stroke-linecap:round;stroke-linejoin:round;stroke-miterlimit:10;}
	.st2{fill:#60605E;}
	.st3{fill:none;stroke:#7D7D7A;stroke-width:5.57;}
	.st4{fill:none;stroke:#60605E;stroke-width:5.57;}
	.st5{fill:none;stroke:#7D7D7A;stroke-width:4;stroke-linecap:round;stroke-linejoin:round;stroke-miterlimit:10;}
	.st6{fill:none;stroke:#7D7D7A;stroke-width:4;stroke-miterlimit:10;}
	.st7{fill:none;stroke:#7D7D7A;stroke-width:2.354;}
	.st8{fill:#7D7D7A;}
	.st9{fill:none;stroke:#7D7D7A;stroke-width:2.513;}
	.st10{fill:none;stroke:#FFFFFF;stroke-width:4;}
	.st11{fill:none;stroke:#7D7D7A;stroke-width:3.138;}
	.st12{fill:none;stroke:#FFFFFF;stroke-width:4;stroke-linecap:round;stroke-linejoin:round;stroke-miterlimit:10;}
</style>
<g>
	<path class="st12" d="M41.94,20.38l40.78,40.78 M40.42,94.6L8.5,62.67L46.37,24.8l31.92,31.92L40.42,94.6z"/>
	<path class="st12" d="M57.5,51.96c0,3.12-2.53,5.65-5.65,5.65s-5.65-2.53-5.65-5.65c0-3.12,2.53-5.65,5.65-5.65
		S57.5,48.84,57.5,51.96z"/>
	<line class="st12" x1="51.83" y1="45.96" x2="51.83" y2="8.4"/>
	<path class="st12" d="M77.44,76.69l5.45-8.29l5.48,8.34c0.59,0.9,1.02,1.91,1.11,2.99c0.04,0.53,0.03,1.07-0.06,1.63
		c-0.41,2.69-2.48,4.93-5.11,5.49c-4.27,0.9-8.03-2.38-8.03-6.56c0-0.01,0-0.02,0-0.03C76.29,78.97,76.75,77.74,77.44,76.69z"/>
</g>
</svg>
