<?xml version="1.0" encoding="utf-8"?>
<!-- Generator: Adobe Illustrator 25.1.0, SVG Export Plug-In . SVG Version: 6.00 Build 0)  -->
<svg version="1.1" id="Layer_1" xmlns="http://www.w3.org/2000/svg" xmlns:xlink="http://www.w3.org/1999/xlink" x="0px" y="0px"
	 viewBox="0 0 200 200" style="enable-background:new 0 0 200 200;" xml:space="preserve">
<style type="text/css">
	.st0{fill:none;stroke:#7D7D7A;stroke-width:4;stroke-linecap:round;stroke-linejoin:round;stroke-miterlimit:10;}
	.st1{fill:#7D7D7A;}
	.st2{fill:#FFFFFF;fill-opacity:0;}
</style>
<g>
	<path class="st0" d="M92.6,37.5L19.7,152.9c-3.7,5.8,0.5,13.6,7.4,13.6h145.7c6.9,0,11.2-7.6,7.4-13.6L107.4,37.5
		C104.1,32,95.9,32,92.6,37.5z"/>
	<g>
		<line class="st0" x1="100" y1="82" x2="100" y2="121.4"/>
		<g>
			<path class="st1" d="M100,145c-0.5,0-0.9-0.2-1.4-0.4c-0.4-0.2-0.9-0.4-1.2-0.7c-0.2-0.2-0.4-0.4-0.4-0.5
				c-0.2-0.2-0.2-0.4-0.4-0.5s-0.2-0.4-0.2-0.7c0-0.2,0-0.5,0-0.7c0-0.2,0-0.5,0-0.7c0-0.2,0.2-0.4,0.2-0.7c0-0.2,0.2-0.4,0.4-0.7
				c0.2-0.2,0.2-0.4,0.4-0.5c0.9-0.9,2.1-1.2,3.2-0.9c0.2,0,0.4,0.2,0.7,0.2c0.2,0,0.4,0.2,0.5,0.4c0.2,0.2,0.4,0.4,0.5,0.4
				c0.2,0.2,0.4,0.4,0.4,0.5c0.2,0.2,0.2,0.4,0.4,0.7s0.2,0.4,0.2,0.7c0,0.2,0,0.5,0,0.7c0,0.9-0.4,1.8-1.1,2.5
				c-0.4,0.4-0.7,0.5-1.1,0.7C100.9,144.8,100.5,145,100,145z"/>
		</g>
	</g>
</g>
<rect class="st2" width="200" height="200"/>
</svg>
