<?xml version="1.0" encoding="utf-8"?>
<!-- Generator: Adobe Illustrator 25.3.0, SVG Export Plug-In . SVG Version: 6.00 Build 0)  -->
<svg version="1.1" id="Layer_1" xmlns="http://www.w3.org/2000/svg" xmlns:xlink="http://www.w3.org/1999/xlink" x="0px" y="0px"
	 viewBox="0 0 115 115" style="enable-background:new 0 0 115 115;" xml:space="preserve">
<style type="text/css">
	.st0{fill:#FFFFFF;}
	.st1{fill:none;stroke:#60605E;stroke-width:3;stroke-linecap:round;stroke-linejoin:round;stroke-miterlimit:10;}
	.st2{fill:#60605E;}
	.st3{fill:none;stroke:#7D7D7A;stroke-width:5.57;}
	.st4{fill:none;stroke:#60605E;stroke-width:5.57;}
	.st5{fill:none;stroke:#7D7D7A;stroke-width:4;stroke-linecap:round;stroke-linejoin:round;stroke-miterlimit:10;}
	.st6{fill:none;stroke:#7D7D7A;stroke-width:4;stroke-miterlimit:10;}
	.st7{fill:none;stroke:#7D7D7A;stroke-width:2.354;}
	.st8{fill:#7D7D7A;}
	.st9{fill:none;stroke:#7D7D7A;stroke-width:2.513;}
	.st10{fill:none;stroke:#FFFFFF;stroke-width:4;}
	.st11{fill:none;stroke:#7D7D7A;stroke-width:3.138;}
	.st12{fill:none;stroke:#FFFFFF;stroke-width:4;stroke-linecap:round;stroke-linejoin:round;stroke-miterlimit:10;}
</style>
<g>
	<path class="st7" d="M57.5,106.38c26.99,0,48.88-21.88,48.88-48.87c0-26.99-21.88-48.88-48.88-48.88
		C30.51,8.62,8.62,30.51,8.62,57.5C8.62,84.49,30.51,106.38,57.5,106.38z"/>
	<path class="st8" d="M52.14,82.58c0.01-0.12,0.01-0.24,0.01-0.37c0-7.41,0-14.82,0-22.23V59.7h-0.32h-7.09
		c-0.33,0-0.33,0-0.33-0.31c0-2.77,0-5.55-0.01-8.32c0-0.25,0.08-0.32,0.32-0.31c2.36,0.01,4.73,0.01,7.09,0.01h0.33v-0.27
		c0-2.31-0.01-4.61,0.02-6.92c0.03-1.86,0.39-3.65,1.19-5.33c1.1-2.28,2.82-3.92,5.17-4.89c1.56-0.65,3.2-0.95,4.9-0.93
		c1.93,0.03,3.87,0.11,5.8,0.18c0.36,0.02,0.72,0.08,1.08,0.09c0.2,0.01,0.27,0.08,0.27,0.29c-0.01,1.15,0,2.29,0,3.44
		c0,1.35-0.01,2.71,0,4.06c0,0.24-0.06,0.31-0.3,0.31c-1.47-0.01-2.94-0.03-4.4,0c-0.67,0.02-1.34,0.09-2,0.23
		c-1.26,0.27-2,1.11-2.25,2.36c-0.1,0.5-0.16,1.02-0.16,1.53c-0.02,1.88-0.01,3.76-0.01,5.64c0,0.06,0.01,0.11,0.01,0.2h0.32h8.12
		c0.36,0,0.36,0,0.32,0.33c-0.19,1.48-0.39,2.95-0.58,4.43c-0.16,1.24-0.32,2.47-0.46,3.71c-0.06,0.47-0.05,0.47-0.52,0.47h-6.89
		h-0.32v0.36v21.98c0,0.18-0.01,0.36-0.01,0.54H52.14z"/>
</g>
</svg>
