<?xml version="1.0" encoding="utf-8"?>
<!-- Generator: Adobe Illustrator 25.1.0, SVG Export Plug-In . SVG Version: 6.00 Build 0)  -->
<svg version="1.1" id="Layer_1" xmlns="http://www.w3.org/2000/svg" xmlns:xlink="http://www.w3.org/1999/xlink" x="0px" y="0px"
	 viewBox="0 0 55 55.6" style="enable-background:new 0 0 55 55.6;" xml:space="preserve">
<style type="text/css">
	.st0{fill:none;stroke:#60605E;stroke-width:3;stroke-linecap:round;stroke-linejoin:round;stroke-miterlimit:10;}
	.st1{fill:#60605E;}
</style>
<circle class="st0" cx="27.5" cy="27.8" r="22.5"/>
<g>
	<path class="st1" d="M28.7,34.5h-2.8v-2.4c0-0.8,0.1-1.4,0.3-2c0.2-0.6,0.4-1.2,0.7-1.6c0.3-0.5,0.7-0.9,1.1-1.3
		c0.4-0.4,0.8-0.8,1.2-1.2l1.1-1c0.7-0.5,1.2-1.2,1.7-1.9c0.4-0.7,0.7-1.6,0.7-2.6c0-0.8-0.1-1.4-0.4-2c-0.3-0.6-0.6-1.1-1.1-1.5
		c-0.5-0.4-1-0.7-1.6-0.9c-0.6-0.2-1.3-0.3-2-0.3c-1.5,0-2.6,0.4-3.5,1.3c-0.9,0.9-1.5,2-1.7,3.4l-2.8-0.5c0.4-2.1,1.3-3.8,2.8-5
		c1.4-1.2,3.2-1.8,5.3-1.8c1.1,0,2.1,0.2,3.1,0.5c1,0.3,1.8,0.8,2.5,1.4c0.7,0.6,1.3,1.4,1.7,2.3c0.4,0.9,0.6,1.9,0.6,3
		c0,0.9-0.1,1.6-0.3,2.3c-0.2,0.6-0.5,1.2-0.8,1.7c-0.3,0.5-0.7,1-1.2,1.4c-0.5,0.4-0.9,0.8-1.5,1.3c-0.6,0.5-1.1,0.9-1.4,1.3
		c-0.4,0.4-0.7,0.8-1,1.2c-0.2,0.4-0.4,0.9-0.5,1.4c-0.1,0.5-0.2,1.1-0.2,1.9V34.5z M29.7,40.4c0,0.6-0.2,1.1-0.6,1.5
		s-0.9,0.7-1.6,0.7c-0.7,0-1.2-0.2-1.6-0.7s-0.6-1-0.6-1.5c0-0.6,0.2-1.1,0.6-1.5c0.4-0.4,0.9-0.7,1.6-0.7c0.6,0,1.2,0.2,1.6,0.7
		C29.5,39.3,29.7,39.8,29.7,40.4z"/>
</g>
</svg>
