<?xml version="1.0" encoding="utf-8"?>
<!-- Generator: Adobe Illustrator 25.3.0, SVG Export Plug-In . SVG Version: 6.00 Build 0)  -->
<svg version="1.1" id="Layer_1" xmlns="http://www.w3.org/2000/svg" xmlns:xlink="http://www.w3.org/1999/xlink" x="0px" y="0px"
	 viewBox="0 0 115 115" style="enable-background:new 0 0 115 115;" xml:space="preserve">
<style type="text/css">
	.st0{fill:#FFFFFF;}
	.st1{fill:none;stroke:#60605E;stroke-width:3;stroke-linecap:round;stroke-linejoin:round;stroke-miterlimit:10;}
	.st2{fill:#60605E;}
	.st3{fill:none;stroke:#7D7D7A;stroke-width:5.57;}
	.st4{fill:none;stroke:#60605E;stroke-width:5.57;}
	.st5{fill:none;stroke:#7D7D7A;stroke-width:4;stroke-linecap:round;stroke-linejoin:round;stroke-miterlimit:10;}
	.st6{fill:none;stroke:#7D7D7A;stroke-width:4;stroke-miterlimit:10;}
	.st7{fill:none;stroke:#7D7D7A;stroke-width:2.354;}
	.st8{fill:#7D7D7A;}
	.st9{fill:none;stroke:#7D7D7A;stroke-width:2.513;}
	.st10{fill:none;stroke:#FFFFFF;stroke-width:4;}
	.st11{fill:none;stroke:#7D7D7A;stroke-width:3.138;}
	.st12{fill:none;stroke:#FFFFFF;stroke-width:4;stroke-linecap:round;stroke-linejoin:round;stroke-miterlimit:10;}
</style>
<g>
	<path class="st9" d="M57.5,106.3c26.95,0,48.8-21.85,48.8-48.79c0-26.95-21.85-48.8-48.8-48.8S8.7,30.55,8.7,57.5
		C8.7,84.45,30.55,106.3,57.5,106.3z"/>
	<path class="st8" d="M75.88,42.41c0,1.81-1.45,3.27-3.25,3.27c-1.79,0-3.25-1.46-3.25-3.27c0-1.81,1.46-3.27,3.25-3.27
		C74.43,39.14,75.88,40.61,75.88,42.41"/>
	<path class="st8" d="M57.58,45.36c-6.58,0-11.94,5.36-11.94,11.95s5.36,11.95,11.94,11.95c6.58,0,11.94-5.36,11.94-11.95
		S64.16,45.36,57.58,45.36 M57.58,71.82c-7.99,0-14.5-6.51-14.5-14.51c0-8,6.5-14.51,14.5-14.51c7.99,0,14.5,6.51,14.5,14.51
		C72.07,65.31,65.57,71.82,57.58,71.82 M47.47,34.1c-7,0-12.69,5.69-12.69,12.7V68.2c0,7,5.69,12.7,12.69,12.7h20.07
		c6.99,0,12.68-5.69,12.68-12.7V46.8c0-7-5.69-12.7-12.68-12.7H47.47z M67.54,83.46H47.47c-8.41,0-15.24-6.84-15.24-15.26V46.8
		c0-8.41,6.84-15.26,15.24-15.26h20.07c8.4,0,15.24,6.84,15.24,15.26V68.2C82.78,76.61,75.94,83.46,67.54,83.46"/>
</g>
</svg>
