<?xml version="1.0" encoding="utf-8"?>
<!-- Generator: Adobe Illustrator 25.1.0, SVG Export Plug-In . SVG Version: 6.00 Build 0)  -->
<svg version="1.1" id="Layer_1" xmlns="http://www.w3.org/2000/svg" xmlns:xlink="http://www.w3.org/1999/xlink" x="0px" y="0px"
	 viewBox="0 0 200 200" style="enable-background:new 0 0 200 200;" xml:space="preserve">
<style type="text/css">
	.st0{fill:#FFFFFF;fill-opacity:0;}
	.st1{fill:none;stroke:#7D7D7A;stroke-width:4;stroke-linejoin:round;stroke-miterlimit:10;}
	.st2{fill:none;stroke:#7D7D7A;stroke-width:4;stroke-linecap:round;stroke-linejoin:round;stroke-miterlimit:10;}
</style>
<rect class="st0" width="200" height="200"/>
<g>
	<g>
		<path class="st1" d="M82,142.5h36 M111,175H89.3V167H111L111,175z M117.7,167H82.5v-12.8h35.1V167z M140.5,81.7
			c0-22.7-18.7-41-41.6-40.3C77.3,42,59.7,60.4,59.8,82c0.1,8.4,2.7,16.3,7.2,22.7c9.6,13.7,15.5,29.7,15.5,46.4v3.1h35.2v-1.7
			c0-16.6,4.6-33.2,14.6-46.5C137.5,99.3,140.5,90.9,140.5,81.7z"/>
	</g>
	<line class="st2" x1="44.3" y1="81.3" x2="26.7" y2="81.3"/>
	<line class="st2" x1="55" y1="48.6" x2="40.7" y2="38.2"/>
	<line class="st2" x1="55" y1="114" x2="40.7" y2="124.4"/>
	<line class="st2" x1="155.7" y1="81.3" x2="173.3" y2="81.3"/>
	<line class="st2" x1="145" y1="48.6" x2="159.3" y2="38.2"/>
	<line class="st2" x1="145" y1="114" x2="159.3" y2="124.4"/>
</g>
</svg>
