<?xml version="1.0" encoding="utf-8"?>
<!-- Generator: Adobe Illustrator 25.3.0, SVG Export Plug-In . SVG Version: 6.00 Build 0)  -->
<svg version="1.1" id="Layer_1" xmlns="http://www.w3.org/2000/svg" xmlns:xlink="http://www.w3.org/1999/xlink" x="0px" y="0px"
	 viewBox="0 0 651 90" style="enable-background:new 0 0 651 90;" xml:space="preserve">
<style type="text/css">
	.st0{fill:#FFFFFF;}
	.st1{fill:none;stroke:#60605E;stroke-width:3;stroke-linecap:round;stroke-linejoin:round;stroke-miterlimit:10;}
	.st2{fill:#60605E;}
	.st3{fill:none;stroke:#7D7D7A;stroke-width:5.57;}
	.st4{fill:none;stroke:#60605E;stroke-width:5.57;}
	.st5{fill:none;stroke:#7D7D7A;stroke-width:4;stroke-linecap:round;stroke-linejoin:round;stroke-miterlimit:10;}
	.st6{fill:none;stroke:#7D7D7A;stroke-width:4;stroke-miterlimit:10;}
	.st7{fill:none;stroke:#7D7D7A;stroke-width:2.354;}
	.st8{fill:#7D7D7A;}
	.st9{fill:none;stroke:#7D7D7A;stroke-width:2.513;}
	.st10{fill:none;stroke:#FFFFFF;stroke-width:4;}
	.st11{fill:none;stroke:#7D7D7A;stroke-width:3.138;}
	.st12{fill:none;stroke:#FFFFFF;stroke-width:4;stroke-linecap:round;stroke-linejoin:round;stroke-miterlimit:10;}
</style>
<g>
	<path d="M593.72,10.18v66.36h42.11V58.77h-19.61v-6.95h18.31v-16.9h-18.31v-6.95h19.61V10.18H593.72z M552.16,77.96
		c15.25,0,27.11-10.3,27.11-23.94c0-12.32-7.67-17.52-18.13-19.72l-2.96-0.62c-3.75-0.79-7.06-1.23-7.06-3.7
		c0-2.46,2.88-3.26,6.19-3.26c4.01,0,9.42,1.94,12.73,4.31l7.58-16.81l-2.18-1.06c-5.67-2.73-12.47-4.4-19.79-4.4
		c-14.99,0-26.68,10.3-26.68,23.85c0,10.47,6.45,16.46,15.95,18.4l3.49,0.7c4.18,0.88,8.37,1.5,8.37,4.49c0,2.64-2.7,3.78-6.8,3.78
		c-4.1,0-9.94-1.58-16.3-6.25l-7.67,16.72l1.74,1.06C534.38,75.58,542.57,77.96,552.16,77.96 M483.83,77.96
		c9.59,0,17.43-3.26,22.84-8.54c4.45-4.4,6.97-10.39,6.97-18.92V10.18h-22.49v38.99c0,5.1-3.14,7.66-7.32,7.66
		c-4.27,0-7.32-2.55-7.32-7.66V10.18h-22.49V50.5c0,8.54,2.53,14.52,6.97,18.92C466.4,74.7,474.24,77.96,483.83,77.96 M405.15,56.83
		c-7.32,0-12.47-5.72-12.47-13.47c0-7.75,5.14-13.47,12.47-13.47c7.15,0,12.47,5.72,12.47,13.47
		C417.61,51.11,412.3,56.83,405.15,56.83 M405.15,77.96c20.22,0,34.96-14.7,34.96-34.59c0-19.89-14.73-34.59-34.96-34.59
		c-20.22,0-34.96,14.7-34.96,34.59C370.19,63.26,384.92,77.96,405.15,77.96 M294.63,10.18v66.36h22.49V53.49h16.04v23.06h22.49
		V10.18h-22.49v22.18h-16.04V10.18H294.63z M233.61,76.55h22.23l-12.21-66.36h-23.36l-9.94,27.55l-8.72-27.55h-23.36l-12.21,66.36
		h22.23l5.49-30.72l9.76,30.72h14.82l9.76-30.72L233.61,76.55z M138.58,77.96c5.58,0,10.64-1.23,14.99-3.7V51.73
		c-3.31,3.08-7.93,5.1-13.25,5.1c-8.2,0-14.12-5.72-14.12-13.47c0-7.75,5.93-13.47,14.12-13.47c5.32,0,9.94,2.02,13.25,5.1V12.38
		c-4.36-2.2-9.41-3.61-14.99-3.61c-20.14,0-34.87,14.79-34.87,34.59C103.71,63.17,118.44,77.96,138.58,77.96 M71.39,76.55h22.23
		L81.42,10.18H58.05l-9.94,27.55L39.4,10.18H16.04L3.83,76.55h22.23l5.49-30.72l9.76,30.72h14.82l9.76-30.72L71.39,76.55z"/>
</g>
</svg>
