<?xml version="1.0" encoding="utf-8"?>
<!-- Generator: Adobe Illustrator 25.4.1, SVG Export Plug-In . SVG Version: 6.00 Build 0)  -->
<svg version="1.1" id="Layer_1" xmlns="http://www.w3.org/2000/svg" xmlns:xlink="http://www.w3.org/1999/xlink" x="0px" y="0px"
	 viewBox="0 0 829.41 93.41" style="enable-background:new 0 0 829.41 93.41;" xml:space="preserve">
<style type="text/css">
	.st0{fill:#414042;}
</style>
<g>
	<path class="st0" d="M143.33,31.89l10.05,26.2h0.1l10.65-28.2l10.65,28.2h0.1l10.05-26.2h5.15l-15.1,39.4l-10.85-28.25h-0.1
		l-10.85,28.25l-15.1-39.4H143.33z"/>
	<path class="st0" d="M212.08,57.64c0,0.3-0.01,0.6-0.02,0.9c-0.02,0.3-0.04,0.6-0.08,0.9h-18.1c0.13,0.9,0.41,1.73,0.82,2.5
		c0.42,0.77,0.95,1.42,1.6,1.98c0.65,0.55,1.38,0.97,2.2,1.27c0.82,0.3,1.71,0.45,2.67,0.45c1.47,0,2.77-0.34,3.9-1.02
		c1.13-0.68,2-1.59,2.6-2.73l3.95,2.35c-1.07,1.8-2.51,3.24-4.33,4.33c-1.82,1.08-3.86,1.62-6.12,1.62c-1.73,0-3.34-0.33-4.83-0.98
		c-1.48-0.65-2.77-1.54-3.88-2.67c-1.1-1.13-1.96-2.46-2.57-3.98c-0.62-1.52-0.93-3.14-0.93-4.88c0-1.8,0.29-3.47,0.88-5
		c0.58-1.53,1.4-2.86,2.45-3.98c1.05-1.12,2.27-2,3.67-2.65c1.4-0.65,2.93-0.98,4.6-0.98c1.63,0,3.16,0.33,4.58,0.98
		c1.42,0.65,2.63,1.53,3.65,2.65c1.02,1.12,1.82,2.44,2.4,3.98C211.78,54.22,212.08,55.87,212.08,57.64z M200.63,49.49
		c-0.9,0-1.74,0.15-2.53,0.45c-0.78,0.3-1.47,0.71-2.07,1.23c-0.6,0.52-1.08,1.14-1.45,1.88c-0.37,0.73-0.6,1.53-0.7,2.4h13.25
		c-0.17-1.73-0.84-3.16-2.03-4.27C203.92,50.05,202.43,49.49,200.63,49.49z"/>
	<path class="st0" d="M218.08,30.69h4.75v38.9h-4.75V30.69z"/>
	<path class="st0" d="M241.37,70.19c-1.77,0-3.42-0.33-4.95-0.98c-1.53-0.65-2.87-1.54-4-2.67c-1.13-1.13-2.02-2.47-2.65-4
		c-0.63-1.53-0.95-3.17-0.95-4.9c0-1.73,0.32-3.37,0.95-4.9c0.63-1.53,1.52-2.87,2.65-4c1.13-1.13,2.47-2.02,4-2.67
		c1.53-0.65,3.18-0.98,4.95-0.98c1.17,0,2.29,0.16,3.38,0.48c1.08,0.32,2.09,0.76,3.02,1.32v5.15c-0.77-0.77-1.67-1.36-2.73-1.78
		c-1.05-0.42-2.19-0.62-3.42-0.62c-1.1,0-2.13,0.2-3.1,0.6c-0.97,0.4-1.8,0.96-2.5,1.68s-1.25,1.57-1.65,2.55
		c-0.4,0.98-0.6,2.04-0.6,3.17c0,1.13,0.2,2.19,0.6,3.18c0.4,0.98,0.95,1.83,1.65,2.55c0.7,0.72,1.53,1.27,2.5,1.68
		c0.97,0.4,2,0.6,3.1,0.6c1.23,0,2.38-0.21,3.42-0.62c1.05-0.42,1.96-1.01,2.73-1.77v5.15c-0.93,0.57-1.94,1.01-3.02,1.33
		C243.67,70.03,242.54,70.19,241.37,70.19z"/>
	<path class="st0" d="M264.42,70.19c-1.77,0-3.42-0.33-4.95-0.98c-1.53-0.65-2.87-1.54-4-2.67c-1.13-1.13-2.02-2.47-2.65-4
		c-0.63-1.53-0.95-3.17-0.95-4.9c0-1.73,0.32-3.37,0.95-4.9c0.63-1.53,1.52-2.87,2.65-4c1.13-1.13,2.47-2.02,4-2.67
		c1.53-0.65,3.18-0.98,4.95-0.98c1.77,0,3.42,0.33,4.95,0.98s2.86,1.54,3.98,2.67c1.12,1.13,2,2.47,2.65,4
		c0.65,1.53,0.98,3.17,0.98,4.9c0,1.73-0.32,3.37-0.98,4.9c-0.65,1.53-1.53,2.87-2.65,4c-1.12,1.13-2.44,2.02-3.98,2.67
		S266.19,70.19,264.42,70.19z M264.42,65.64c1.07,0,2.07-0.2,3-0.6c0.93-0.4,1.74-0.96,2.42-1.68c0.68-0.72,1.22-1.57,1.6-2.55
		c0.38-0.98,0.58-2.04,0.58-3.18c0-1.13-0.19-2.19-0.58-3.17c-0.38-0.98-0.92-1.83-1.6-2.55c-0.68-0.72-1.49-1.28-2.42-1.68
		c-0.93-0.4-1.93-0.6-3-0.6c-1.07,0-2.07,0.2-3,0.6c-0.93,0.4-1.74,0.96-2.43,1.68c-0.68,0.72-1.22,1.57-1.6,2.55
		c-0.38,0.98-0.58,2.04-0.58,3.17c0,1.13,0.19,2.19,0.58,3.18c0.38,0.98,0.92,1.83,1.6,2.55c0.68,0.72,1.49,1.27,2.43,1.68
		C262.36,65.44,263.36,65.64,264.42,65.64z"/>
	<path class="st0" d="M306.47,45.09c1.23,0,2.38,0.23,3.45,0.67c1.07,0.45,1.99,1.07,2.77,1.85c0.78,0.78,1.4,1.69,1.85,2.73
		c0.45,1.03,0.68,2.15,0.68,3.35v15.9h-4.75V55.14c0-1.17-0.12-2.06-0.35-2.67c-0.23-0.62-0.55-1.12-0.95-1.52
		c-0.87-0.87-1.93-1.3-3.2-1.3c-1.27,0-2.33,0.43-3.2,1.3c-0.4,0.4-0.72,0.91-0.95,1.52c-0.23,0.62-0.35,1.51-0.35,2.67v14.45h-4.75
		V55.14c0-1.17-0.12-2.06-0.35-2.67c-0.23-0.62-0.55-1.12-0.95-1.52c-0.87-0.87-1.93-1.3-3.2-1.3c-1.27,0-2.33,0.43-3.2,1.3
		c-0.4,0.4-0.72,0.91-0.95,1.52c-0.23,0.62-0.35,1.51-0.35,2.67v14.45h-4.75v-23.9h4.5v1.8c0.67-0.77,1.48-1.36,2.45-1.77
		c0.97-0.42,2.02-0.62,3.15-0.62c2.63,0,4.8,1.05,6.5,3.15c0.77-0.97,1.74-1.73,2.93-2.3C303.68,45.37,305.01,45.09,306.47,45.09z"
		/>
	<path class="st0" d="M343.92,57.64c0,0.3-0.01,0.6-0.02,0.9c-0.02,0.3-0.04,0.6-0.08,0.9h-18.1c0.13,0.9,0.41,1.73,0.82,2.5
		c0.42,0.77,0.95,1.42,1.6,1.98c0.65,0.55,1.38,0.97,2.2,1.27c0.82,0.3,1.71,0.45,2.67,0.45c1.47,0,2.77-0.34,3.9-1.02
		c1.13-0.68,2-1.59,2.6-2.73l3.95,2.35c-1.07,1.8-2.51,3.24-4.33,4.33c-1.82,1.08-3.86,1.62-6.12,1.62c-1.73,0-3.34-0.33-4.83-0.98
		c-1.48-0.65-2.77-1.54-3.88-2.67c-1.1-1.13-1.96-2.46-2.57-3.98c-0.62-1.52-0.93-3.14-0.93-4.88c0-1.8,0.29-3.47,0.88-5
		c0.58-1.53,1.4-2.86,2.45-3.98c1.05-1.12,2.27-2,3.67-2.65c1.4-0.65,2.93-0.98,4.6-0.98c1.63,0,3.16,0.33,4.58,0.98
		c1.42,0.65,2.63,1.53,3.65,2.65c1.02,1.12,1.82,2.44,2.4,3.98C343.63,54.22,343.92,55.87,343.92,57.64z M332.47,49.49
		c-0.9,0-1.74,0.15-2.53,0.45c-0.78,0.3-1.47,0.71-2.07,1.23c-0.6,0.52-1.08,1.14-1.45,1.88c-0.37,0.73-0.6,1.53-0.7,2.4h13.25
		c-0.17-1.73-0.84-3.16-2.03-4.27C335.77,50.05,334.27,49.49,332.47,49.49z"/>
	<path class="st0" d="M363.67,49.94h-4.35v-4.25h4.35v-9.15h4.75v9.15h5.05v4.25h-5.05v19.65h-4.75V49.94z"/>
	<path class="st0" d="M388.62,70.19c-1.77,0-3.42-0.33-4.95-0.98c-1.53-0.65-2.87-1.54-4-2.67c-1.13-1.13-2.02-2.47-2.65-4
		c-0.63-1.53-0.95-3.17-0.95-4.9c0-1.73,0.32-3.37,0.95-4.9c0.63-1.53,1.52-2.87,2.65-4c1.13-1.13,2.47-2.02,4-2.67
		c1.53-0.65,3.18-0.98,4.95-0.98c1.77,0,3.42,0.33,4.95,0.98s2.86,1.54,3.98,2.67c1.12,1.13,2,2.47,2.65,4
		c0.65,1.53,0.98,3.17,0.98,4.9c0,1.73-0.33,3.37-0.98,4.9c-0.65,1.53-1.53,2.87-2.65,4c-1.12,1.13-2.44,2.02-3.98,2.67
		S390.39,70.19,388.62,70.19z M388.62,65.64c1.07,0,2.07-0.2,3-0.6c0.93-0.4,1.74-0.96,2.42-1.68c0.68-0.72,1.22-1.57,1.6-2.55
		c0.38-0.98,0.58-2.04,0.58-3.18c0-1.13-0.19-2.19-0.58-3.17c-0.38-0.98-0.92-1.83-1.6-2.55c-0.68-0.72-1.49-1.28-2.42-1.68
		c-0.93-0.4-1.93-0.6-3-0.6c-1.07,0-2.07,0.2-3,0.6c-0.93,0.4-1.74,0.96-2.43,1.68c-0.68,0.72-1.22,1.57-1.6,2.55
		c-0.38,0.98-0.58,2.04-0.58,3.17c0,1.13,0.19,2.19,0.58,3.18c0.38,0.98,0.92,1.83,1.6,2.55c0.68,0.72,1.49,1.27,2.43,1.68
		C386.56,65.44,387.56,65.64,388.62,65.64z"/>
</g>
<g>
	<path class="st0" d="M414.78,31.89h13.25l6.95,19.3l6.95-19.3h13.25l-14,37.7h-12.4L414.78,31.89z"/>
	<path class="st0" d="M472.18,31.89v37.7h-12.9v-37.7H472.18z"/>
	<path class="st0" d="M492.08,70.39c-2.77,0-5.32-0.32-7.65-0.95c-2.33-0.63-4.45-1.53-6.35-2.7l-1-0.6l4.4-9.5
		c1.83,1.33,3.56,2.26,5.17,2.78c1.62,0.52,3.01,0.77,4.18,0.77c1.17,0,2.11-0.17,2.82-0.5c0.72-0.33,1.08-0.88,1.08-1.65
		c0-0.43-0.14-0.78-0.42-1.05c-0.28-0.27-0.65-0.49-1.1-0.67c-0.45-0.18-0.96-0.33-1.53-0.45c-0.57-0.12-1.15-0.24-1.75-0.38l-2-0.4
		c-2.73-0.57-4.94-1.7-6.62-3.4c-1.68-1.7-2.53-4.05-2.53-7.05c0-1.93,0.39-3.72,1.18-5.38c0.78-1.65,1.87-3.08,3.25-4.3
		c1.38-1.22,3-2.17,4.85-2.85c1.85-0.68,3.86-1.02,6.03-1.02c2.1,0,4.11,0.23,6.02,0.67c1.92,0.45,3.69,1.06,5.33,1.83l1.25,0.6
		l-4.35,9.55c-0.97-0.67-2.13-1.24-3.5-1.73c-1.37-0.48-2.63-0.72-3.8-0.72c-0.97,0-1.8,0.13-2.5,0.4c-0.7,0.27-1.05,0.75-1.05,1.45
		c0,0.37,0.11,0.66,0.33,0.88c0.22,0.22,0.52,0.4,0.9,0.55c0.38,0.15,0.82,0.27,1.3,0.38c0.48,0.1,0.99,0.2,1.52,0.3l1.7,0.35
		c1.5,0.3,2.88,0.73,4.15,1.27c1.27,0.55,2.37,1.27,3.3,2.15c0.93,0.88,1.66,1.97,2.17,3.25c0.52,1.28,0.78,2.79,0.78,4.53
		c0,1.93-0.4,3.73-1.2,5.4c-0.8,1.67-1.9,3.11-3.3,4.32c-1.4,1.22-3.04,2.17-4.92,2.85C496.32,70.05,494.28,70.39,492.08,70.39z"/>
	<path class="st0" d="M529.83,70.39c-2.77,0-5.25-0.43-7.45-1.3c-2.2-0.87-4.08-2.05-5.65-3.55c-1.27-1.27-2.25-2.77-2.95-4.5
		c-0.7-1.73-1.05-3.82-1.05-6.25v-22.9h12.9v22.15c0,1.47,0.39,2.56,1.18,3.27c0.78,0.72,1.79,1.07,3.02,1.07c1.2,0,2.2-0.36,3-1.07
		c0.8-0.72,1.2-1.81,1.2-3.27V31.89h12.9v22.9c0,2.43-0.35,4.52-1.05,6.25c-0.7,1.73-1.68,3.23-2.95,4.5
		c-1.57,1.5-3.45,2.68-5.65,3.55S532.59,70.39,529.83,70.39z"/>
	<path class="st0" d="M563.43,64.24l-1.9,5.35h-13.05l13.5-37.7h14.3l13.5,37.7h-13.1l-1.9-5.35H563.43z M569.13,46.34l-3.45,9.6
		h6.9L569.13,46.34z"/>
	<path class="st0" d="M607.03,31.89v25.7h11.4v12h-24.3v-37.7H607.03z"/>
	<path class="st0" d="M637.18,31.89v37.7h-12.9v-37.7H637.18z"/>
	<path class="st0" d="M657.08,70.39c-2.77,0-5.32-0.32-7.65-0.95c-2.33-0.63-4.45-1.53-6.35-2.7l-1-0.6l4.4-9.5
		c1.83,1.33,3.56,2.26,5.17,2.78c1.62,0.52,3.01,0.77,4.18,0.77c1.17,0,2.11-0.17,2.82-0.5c0.72-0.33,1.08-0.88,1.08-1.65
		c0-0.43-0.14-0.78-0.42-1.05c-0.28-0.27-0.65-0.49-1.1-0.67c-0.45-0.18-0.96-0.33-1.53-0.45c-0.57-0.12-1.15-0.24-1.75-0.38l-2-0.4
		c-2.73-0.57-4.94-1.7-6.62-3.4c-1.68-1.7-2.53-4.05-2.53-7.05c0-1.93,0.39-3.72,1.18-5.38c0.78-1.65,1.87-3.08,3.25-4.3
		c1.38-1.22,3-2.17,4.85-2.85c1.85-0.68,3.86-1.02,6.03-1.02c2.1,0,4.11,0.23,6.02,0.67c1.92,0.45,3.69,1.06,5.33,1.83l1.25,0.6
		l-4.35,9.55c-0.97-0.67-2.13-1.24-3.5-1.73c-1.37-0.48-2.63-0.72-3.8-0.72c-0.97,0-1.8,0.13-2.5,0.4c-0.7,0.27-1.05,0.75-1.05,1.45
		c0,0.37,0.11,0.66,0.33,0.88c0.22,0.22,0.52,0.4,0.9,0.55c0.38,0.15,0.82,0.27,1.3,0.38c0.48,0.1,0.99,0.2,1.52,0.3l1.7,0.35
		c1.5,0.3,2.88,0.73,4.15,1.27c1.27,0.55,2.37,1.27,3.3,2.15c0.93,0.88,1.66,1.97,2.17,3.25c0.52,1.28,0.78,2.79,0.78,4.53
		c0,1.93-0.4,3.73-1.2,5.4c-0.8,1.67-1.9,3.11-3.3,4.32c-1.4,1.22-3.04,2.17-4.92,2.85C661.32,70.05,659.28,70.39,657.08,70.39z"/>
	<path class="st0" d="M702.18,31.89v10.1h-11.25v3.95h10.5v9.6h-10.5v3.95h11.25v10.1h-24.15v-37.7H702.18z"/>
</g>
</svg>
