<?xml version="1.0" encoding="utf-8"?>
<!-- Generator: Adobe Illustrator 25.3.0, SVG Export Plug-In . SVG Version: 6.00 Build 0)  -->
<svg version="1.1" id="Layer_1" xmlns="http://www.w3.org/2000/svg" xmlns:xlink="http://www.w3.org/1999/xlink" x="0px" y="0px"
	 viewBox="0 0 330.33 236.99" style="enable-background:new 0 0 330.33 236.99;" xml:space="preserve">
<style type="text/css">
	.st0{fill:#FFFFFF;}
	.st1{fill:none;stroke:#60605E;stroke-width:3;stroke-linecap:round;stroke-linejoin:round;stroke-miterlimit:10;}
	.st2{fill:#60605E;}
	.st3{fill:none;stroke:#7D7D7A;stroke-width:5.57;}
	.st4{fill:none;stroke:#60605E;stroke-width:5.57;}
	.st5{fill:none;stroke:#7D7D7A;stroke-width:4;stroke-linecap:round;stroke-linejoin:round;stroke-miterlimit:10;}
	.st6{fill:none;stroke:#7D7D7A;stroke-width:4;stroke-miterlimit:10;}
	.st7{fill:none;stroke:#7D7D7A;stroke-width:2.354;}
	.st8{fill:#7D7D7A;}
	.st9{fill:none;stroke:#7D7D7A;stroke-width:2.513;}
	.st10{fill:none;stroke:#FFFFFF;stroke-width:4;}
	.st11{fill:none;stroke:#7D7D7A;stroke-width:3.138;}
	.st12{fill:none;stroke:#FFFFFF;stroke-width:4;stroke-linecap:round;stroke-linejoin:round;stroke-miterlimit:10;}
</style>
<g>
	<g>
		<path class="st5" d="M144.75,79.55l-37.2,28.88l-37.2-28.88l37.2-28.88L144.75,79.55z M144.75,159.92l-37.2,28.88l-37.2-28.88
			l37.2-28.88L144.75,159.92z M260.04,79.55l-37.2,28.88l-37.2-28.88l37.2-28.88L260.04,79.55z M83.86,118.5l-37.2,28.88L9.46,118.5
			l37.2-28.88L83.86,118.5z M320.86,118.5l-37.2,28.88l-37.2-28.88l37.2-28.88L320.86,118.5z M260.04,159.92l-37.2,28.88
			l-37.2-28.88l37.2-28.88L260.04,159.92z M202.36,38.12L165.16,67l-37.2-28.88l37.2-28.88L202.36,38.12z M202.36,118.5l-37.2,28.88
			l-37.2-28.88l37.2-28.88L202.36,118.5z M202.36,198.87l-37.2,28.88l-37.2-28.88l37.2-28.88L202.36,198.87z"/>
	</g>
</g>
</svg>
