<?xml version="1.0" encoding="utf-8"?>
<!-- Generator: Adobe Illustrator 25.3.0, SVG Export Plug-In . SVG Version: 6.00 Build 0)  -->
<svg version="1.1" id="Layer_1" xmlns="http://www.w3.org/2000/svg" xmlns:xlink="http://www.w3.org/1999/xlink" x="0px" y="0px"
	 viewBox="0 0 214.33 256.99" style="enable-background:new 0 0 214.33 256.99;" xml:space="preserve">
<style type="text/css">
	.st0{fill:#FFFFFF;}
	.st1{fill:none;stroke:#60605E;stroke-width:3;stroke-linecap:round;stroke-linejoin:round;stroke-miterlimit:10;}
	.st2{fill:#60605E;}
	.st3{fill:none;stroke:#7D7D7A;stroke-width:5.57;}
	.st4{fill:none;stroke:#60605E;stroke-width:5.57;}
	.st5{fill:none;stroke:#7D7D7A;stroke-width:4;stroke-linecap:round;stroke-linejoin:round;stroke-miterlimit:10;}
	.st6{fill:none;stroke:#7D7D7A;stroke-width:4;stroke-miterlimit:10;}
	.st7{fill:none;stroke:#7D7D7A;stroke-width:2.354;}
	.st8{fill:#7D7D7A;}
	.st9{fill:none;stroke:#7D7D7A;stroke-width:2.513;}
	.st10{fill:none;stroke:#FFFFFF;stroke-width:4;}
	.st11{fill:none;stroke:#7D7D7A;stroke-width:3.138;}
	.st12{fill:none;stroke:#FFFFFF;stroke-width:4;stroke-linecap:round;stroke-linejoin:round;stroke-miterlimit:10;}
</style>
<g>
	<path class="st5" d="M73.41,191.5l2.37,15.36c0.44,2.89,1.63,5.61,3.55,7.83c5.3,6.14,15.61,14.67,17.69,18.29
		c0.81,1.4,4.07,7.7,6.28,11.99c1.3,2.52,3.91,4.07,6.74,4.03l33.23-0.51c4.12-0.06,7.41-3.42,7.35-7.55
		c-0.16-9.63,0.37-27.25,5.08-44.63c2.05-7.55,2.04-15.5-0.55-22.88l-22.32-50.35c-0.7-1.4-0.4-1.74-1.82-1.07l-1.99-0.24
		c-7.22,3.43-8.58,12.1-5.66,19.54l12.19,31.14 M69.05,182.24l-10.74-7.55c-2.78-1.95-3.44-5.78-1.49-8.56
		c1.95-2.77,5.79-3.44,8.56-1.49l10.74,7.55c2.78,1.95,3.44,5.78,1.49,8.56C75.66,183.52,71.83,184.19,69.05,182.24z M69.05,166.93
		l-10.74-7.55c-2.78-1.95-3.44-5.79-1.49-8.56c1.95-2.78,5.79-3.44,8.56-1.49l10.74,7.55c2.78,1.95,3.44,5.78,1.49,8.56
		C75.66,168.22,71.83,168.88,69.05,166.93z M71.33,152.77l-10.74-7.55c-2.78-1.95-3.44-5.78-1.49-8.56
		c1.95-2.78,5.78-3.44,8.56-1.49l10.74,7.55c2.78,1.95,3.44,5.78,1.49,8.56C77.93,154.05,74.1,154.72,71.33,152.77z M73.41,114.83
		l-1.84-1.58c-4.67-4-12.27,0.54-10.2,6.32c0.49,1.37,1.4,2.64,2.75,3.62l9.29,6.72 M128.55,155.17v36.33
		c0,3.07-2.49,5.56-5.56,5.56H78.97c-3.07,0-5.56-2.49-5.56-5.56v-8.22 M73.41,139.22v-40.8c0-3.07,2.49-5.56,5.56-5.56h44.02
		c3.07,0,5.56,2.49,5.56,5.56v22.51 M36.45,177.82c-18.1-18-29.29-42.87-29.29-70.34c0-54.94,44.77-99.48,100-99.48
		c55.23,0,100,44.54,100,99.48c0,25.38-9.55,48.54-25.27,66.11c-0.9,1-1.82,1.99-2.76,2.96"/>
</g>
</svg>
