<?xml version="1.0" encoding="utf-8"?>
<!-- Generator: Adobe Illustrator 25.1.0, SVG Export Plug-In . SVG Version: 6.00 Build 0)  -->
<svg version="1.1" id="Layer_1" xmlns="http://www.w3.org/2000/svg" xmlns:xlink="http://www.w3.org/1999/xlink" x="0px" y="0px"
	 viewBox="0 0 100 100" style="enable-background:new 0 0 100 100;" xml:space="preserve">
<style type="text/css">
	.st0{fill:#FFFFFF;}
</style>
<path class="st0" d="M50,87.2c20.6,0,37.2-16.7,37.2-37.2c0-20.6-16.7-37.2-37.2-37.2c-20.6,0-37.2,16.7-37.2,37.2
	C12.8,70.6,29.4,87.2,50,87.2"/>
<g>
	<path class="st0" d="M50,100C23.5,100,1.9,77.6,1.9,50C1.9,22.4,23.5,0,50,0s48.1,22.4,48.1,50C98.1,77.6,76.5,100,50,100z M50,4.7
		C26.1,4.7,6.7,25,6.7,50c0,25,19.4,45.3,43.3,45.3C73.9,95.3,93.3,75,93.3,50C93.3,25,73.9,4.7,50,4.7z"/>
</g>
</svg>
