<?xml version="1.0" encoding="utf-8"?>
<!-- Generator: Adobe Illustrator 25.1.0, SVG Export Plug-In . SVG Version: 6.00 Build 0)  -->
<svg version="1.1" id="Layer_1" xmlns="http://www.w3.org/2000/svg" xmlns:xlink="http://www.w3.org/1999/xlink" x="0px" y="0px"
	 viewBox="0 0 61.6 61.6" style="enable-background:new 0 0 61.6 61.6;" xml:space="preserve">
<style type="text/css">
	.st0{fill:#939598;}
</style>
<path class="st0" d="M39.7,33.9c1.8-3,2.8-6.5,2.8-10.2c0-10.9-8.9-19.8-19.8-19.8S3,12.8,3,23.7s8.9,19.8,19.8,19.8
	c4.6,0,8.9-1.6,12.3-4.3l18.5,18.5l5-5L39.7,33.9z M22.8,36.4c-7,0-12.8-5.7-12.8-12.8c0-7,5.7-12.8,12.8-12.8
	c7,0,12.8,5.7,12.8,12.8C35.5,30.7,29.8,36.4,22.8,36.4z"/>
</svg>
