<?xml version="1.0" encoding="utf-8"?>
<!-- Generator: Adobe Illustrator 25.3.0, SVG Export Plug-In . SVG Version: 6.00 Build 0)  -->
<svg version="1.1" id="Layer_1" xmlns="http://www.w3.org/2000/svg" xmlns:xlink="http://www.w3.org/1999/xlink" x="0px" y="0px"
	 viewBox="0 0 152.33 243.99" style="enable-background:new 0 0 152.33 243.99;" xml:space="preserve">
<style type="text/css">
	.st0{fill:#FFFFFF;}
	.st1{fill:none;stroke:#60605E;stroke-width:3;stroke-linecap:round;stroke-linejoin:round;stroke-miterlimit:10;}
	.st2{fill:#60605E;}
	.st3{fill:none;stroke:#7D7D7A;stroke-width:5.57;}
	.st4{fill:none;stroke:#60605E;stroke-width:5.57;}
	.st5{fill:none;stroke:#7D7D7A;stroke-width:4;stroke-linecap:round;stroke-linejoin:round;stroke-miterlimit:10;}
	.st6{fill:none;stroke:#7D7D7A;stroke-width:4;stroke-miterlimit:10;}
	.st7{fill:none;stroke:#7D7D7A;stroke-width:2.354;}
	.st8{fill:#7D7D7A;}
	.st9{fill:none;stroke:#7D7D7A;stroke-width:2.513;}
	.st10{fill:none;stroke:#FFFFFF;stroke-width:4;}
	.st11{fill:none;stroke:#7D7D7A;stroke-width:3.138;}
	.st12{fill:none;stroke:#FFFFFF;stroke-width:4;stroke-linecap:round;stroke-linejoin:round;stroke-miterlimit:10;}
</style>
<g>
	<path class="st5" d="M93.94,133.64v-9.93c0-6.57,5.35-11.9,11.95-11.9c6.6,0,11.95,5.33,11.95,11.9v15.01 M70.04,123.67v-8.92
		c0-6.57,5.35-11.9,11.95-11.9c6.6,0,11.95,5.33,11.95,11.9v15.01 M70.04,120V64.32c0-5.95-4.07-11.46-9.93-12.41
		c-7.49-1.22-13.96,4.51-13.96,11.74v88.07 M46.15,123.27l-0.5,0.2c-9.62,3.79-15.95,13.08-15.95,23.43v19.5v6.71
		c0,18.07,8.68,35.04,23.34,45.62v14.82h74.02v-15.72c10.97-11.31,16.73-26.68,15.91-42.41l-1.24-23.7v-18.33
		c0-5.91-4.15-11.19-9.99-12.12c-7.46-1.18-13.91,4.53-13.91,11.75v9.93 M23.59,93.43c-8.83-8.8-14.29-20.95-14.29-34.38
		c0-26.85,21.85-48.62,48.8-48.62c26.95,0,48.8,21.77,48.8,48.62c0,12.4-4.66,23.72-12.34,32.31c-0.44,0.49-0.89,0.97-1.35,1.45"/>
</g>
</svg>
