<?xml version="1.0" encoding="utf-8"?>
<!-- Generator: Adobe Illustrator 25.1.0, SVG Export Plug-In . SVG Version: 6.00 Build 0)  -->
<svg version="1.1" id="Layer_1" xmlns="http://www.w3.org/2000/svg" xmlns:xlink="http://www.w3.org/1999/xlink" x="0px" y="0px"
	 viewBox="0 0 651 90" style="enable-background:new 0 0 651 90;" xml:space="preserve">
<style type="text/css">
	.st0{opacity:0;fill:#FFFFFF;}
	.st1{fill:#FFFFFF;}
</style>
<rect class="st0" width="651" height="90"/>
<g>
	<path class="st1" d="M523.6,21v48h30.5V56.1h-14.2v-5h13.2V38.9h-13.2v-5h14.2V21H523.6z M493.6,70c11,0,19.6-7.4,19.6-17.3
		c0-8.9-5.5-12.7-13.1-14.3l-2.1-0.4c-2.7-0.6-5.1-0.9-5.1-2.7c0-1.8,2.1-2.4,4.5-2.4c2.9,0,6.8,1.4,9.2,3.1l5.5-12.2l-1.6-0.8
		c-4.1-2-9-3.2-14.3-3.2c-10.8,0-19.3,7.4-19.3,17.3c0,7.6,4.7,11.9,11.5,13.3l2.5,0.5c3,0.6,6.1,1.1,6.1,3.2c0,1.9-2,2.7-4.9,2.7
		c-3,0-7.2-1.1-11.8-4.5l-5.5,12.1l1.3,0.8C480.7,68.3,486.6,70,493.6,70 M444.1,70c6.9,0,12.6-2.4,16.5-6.2c3.2-3.2,5-7.5,5-13.7
		V21h-16.3v28.2c0,3.7-2.3,5.5-5.3,5.5c-3.1,0-5.3-1.8-5.3-5.5V21h-16.3v29.2c0,6.2,1.8,10.5,5,13.7C431.5,67.7,437.2,70,444.1,70
		 M387.2,54.7c-5.3,0-9-4.1-9-9.7c0-5.6,3.7-9.7,9-9.7c5.2,0,9,4.1,9,9.7C396.2,50.6,392.4,54.7,387.2,54.7 M387.2,70
		c14.6,0,25.3-10.6,25.3-25c0-14.4-10.7-25-25.3-25c-14.6,0-25.3,10.6-25.3,25C361.9,59.4,372.6,70,387.2,70 M307.3,21v48h16.3V52.3
		h11.6V69h16.3V21h-16.3v16h-11.6V21H307.3z M263.1,69h16.1l-8.8-48h-16.9l-7.2,19.9L240,21h-16.9l-8.8,48h16.1l4-22.2l7.1,22.2
		h10.7l7.1-22.2L263.1,69z M194.4,70c4,0,7.7-0.9,10.8-2.7V51c-2.4,2.2-5.7,3.7-9.6,3.7c-5.9,0-10.2-4.1-10.2-9.7
		c0-5.6,4.3-9.7,10.2-9.7c3.8,0,7.2,1.5,9.6,3.7V22.6c-3.1-1.6-6.8-2.6-10.8-2.6c-14.6,0-25.2,10.7-25.2,25S179.8,70,194.4,70
		 M145.8,69h16.1L153,21h-16.9L129,40.9L122.7,21h-16.9l-8.8,48H113l4-22.2L124,69h10.7l7.1-22.2L145.8,69z"/>
</g>
</svg>
